<svg width="26" height="26" viewBox="0 0 26 26" fill="none" xmlns="http://www.w3.org/2000/svg">
<path d="M15.9647 17.9228C16.1458 17.7305 16.2434 17.4743 16.2362 17.2102C16.2291 16.9461 16.1177 16.6956 15.9264 16.5134L12.29 13.021L15.7325 9.38599C15.9135 9.19363 16.0111 8.93743 16.004 8.67334C15.9968 8.40925 15.8854 8.15874 15.6941 7.97651C15.5986 7.88535 15.486 7.81399 15.3628 7.76655C15.2396 7.71912 15.1083 7.69654 14.9763 7.70013C14.8444 7.70372 14.7144 7.73341 14.594 7.78747C14.4735 7.84154 14.365 7.91891 14.2746 8.01514L10.1515 12.3689C10.0604 12.4644 9.989 12.577 9.94156 12.7002C9.89413 12.8233 9.87155 12.9547 9.87514 13.0867C9.87874 13.2186 9.90842 13.3486 9.96248 13.469C10.0165 13.5895 10.0939 13.698 10.1901 13.7884L14.5453 17.9615C14.6407 18.0526 14.7533 18.124 14.8765 18.1714C14.9997 18.2188 15.1311 18.2414 15.263 18.2378C15.395 18.2342 15.525 18.2046 15.6454 18.1505C15.7658 18.0964 15.8744 18.0191 15.9647 17.9228Z" fill="white"/>
</svg>
