<svg width="22" height="22" viewBox="0 0 22 22" fill="none" xmlns="http://www.w3.org/2000/svg">
<g clip-path="url(#clip0)">
<path d="M16.1791 11.2476C16.2446 11.0891 16.2446 10.9111 16.1791 10.7526C16.1475 10.674 16.1008 10.6024 16.0416 10.5418L11.4583 5.95843C11.3367 5.83687 11.1719 5.76858 11 5.76858C10.8281 5.76858 10.6632 5.83687 10.5416 5.95843C10.4201 6.07999 10.3518 6.24485 10.3518 6.41676C10.3518 6.58867 10.4201 6.75354 10.5416 6.8751L14.0204 10.3539L6.41663 10.3493C6.33106 10.3489 6.24627 10.3655 6.16715 10.3981C6.08803 10.4307 6.01614 10.4786 5.95564 10.5391C5.89513 10.5996 5.84721 10.6715 5.81462 10.7506C5.78204 10.8297 5.76545 10.9145 5.7658 11.0001C5.76545 11.0857 5.78204 11.1705 5.81462 11.2496C5.84721 11.3287 5.89513 11.4006 5.95564 11.4611C6.01614 11.5216 6.08803 11.5695 6.16715 11.6021C6.24627 11.6347 6.33106 11.6513 6.41663 11.6509L14.0204 11.6464L10.5416 15.1251C10.4201 15.2467 10.3518 15.4115 10.3518 15.5834C10.3518 15.7554 10.4201 15.9202 10.5416 16.0418C10.6632 16.1633 10.8281 16.2316 11 16.2316C11.1719 16.2316 11.3367 16.1633 11.4583 16.0418L16.0416 11.4584C16.1008 11.3978 16.1475 11.3262 16.1791 11.2476V11.2476Z" fill="#0F808C"/>
</g>
<defs>
<clipPath id="clip0">
<rect width="15.5564" height="15.5564" fill="white" transform="translate(11) rotate(45)"/>
</clipPath>
</defs>
</svg>
